# Blender v2.80 (sub 48) OBJ File: 'SpaceFighterv1.blend'
# www.blender.org
mtllib SpaceFighterv1.mtl
o Cube_Cube.005
v -2.250000 0.800000 1.000000
v -2.250000 0.800000 -1.000000
v -0.550000 0.800000 1.000000
v -0.550000 0.800000 -1.000000
v 0.450000 0.800000 1.000000
v 0.450000 0.800000 -1.000000
v -2.250000 -9.507525 1.000000
v -2.250000 -9.507525 -1.000000
v -0.550000 -9.507525 1.000000
v -0.550000 -9.507525 -1.000000
v 0.450000 -9.507525 1.000000
v 0.450000 -9.507525 -1.000000
v 2.131691 -9.507525 -1.000000
v 2.131691 -9.507525 1.000000
v 2.131691 0.800000 -1.000000
v 2.131691 0.800000 1.000000
v 2.131691 -9.507525 -1.000000
v 2.131691 -9.507525 1.000000
v 4.508975 -3.000000 -0.500000
v 4.508975 -3.000000 0.500000
v 4.508975 -9.507525 -0.500000
v 4.508975 -9.507525 0.500000
v 7.127529 -9.507525 -0.500000
v 7.127531 -9.507525 0.500000
v -4.750000 -2.500000 0.500000
v -4.750000 -2.500000 -0.500000
v -4.750000 -9.507525 0.500000
v -4.750000 -9.507525 -0.500000
v -7.127530 -9.507525 0.500000
v -7.127530 -9.507525 -0.500000
v -2.250000 -19.593857 1.000000
v -2.250000 -19.593857 -1.000000
v 2.131691 -19.593857 -1.000000
v 2.131691 -19.593857 1.000000
v 4.508975 -19.593857 -0.500000
v 4.508975 -19.593857 0.500000
v 7.127529 -19.593857 -0.500000
v 7.127531 -19.593857 0.500000
v -4.750000 -19.593857 0.500000
v -4.750000 -19.593857 -0.500000
v -7.127530 -19.593857 0.500000
v -7.127530 -19.593857 -0.500000
v 2.131691 -21.987103 1.000000
v 2.131691 -21.987103 -1.000000
v -0.550000 3.000000 1.000000
v -0.550000 3.000000 -1.000000
v 0.450000 3.000000 1.000000
v 0.450000 3.000000 -1.000000
v -2.250000 -21.987103 -1.000000
v -2.250000 -21.987103 1.000000
v 4.508975 -21.987103 -0.500000
v 4.508975 -21.987103 0.500000
v -4.750000 -21.987103 0.500000
v -4.750000 -21.987103 -0.500000
v 1.000000 -13.000000 -3.000000
v -1.000000 -13.000000 -3.000000
v -1.500000 -24.000013 -1.000000
v -1.500000 -22.000013 -1.000000
v -1.304910 -24.000013 -0.980785
v -1.304910 -22.000013 -0.980785
v -1.117317 -24.000013 -0.923879
v -1.117317 -22.000013 -0.923879
v -0.944430 -24.000013 -0.831469
v -0.944430 -22.000013 -0.831469
v -0.792893 -24.000013 -0.707106
v -0.792893 -22.000013 -0.707106
v -0.668530 -24.000013 -0.555570
v -0.668530 -22.000013 -0.555570
v -0.576121 -24.000013 -0.382683
v -0.576121 -22.000013 -0.382683
v -0.519215 -24.000013 -0.195090
v -0.519215 -22.000013 -0.195090
v -0.500000 -24.000013 0.000000
v -0.500000 -22.000013 0.000000
v -0.519215 -24.000013 0.195091
v -0.519215 -22.000013 0.195091
v -0.576121 -24.000013 0.382684
v -0.576121 -22.000013 0.382684
v -0.668530 -24.000013 0.555570
v -0.668530 -22.000013 0.555570
v -0.792893 -24.000013 0.707107
v -0.792893 -22.000013 0.707107
v -0.944430 -24.000013 0.831470
v -0.944430 -22.000013 0.831470
v -1.117317 -24.000013 0.923880
v -1.117317 -22.000013 0.923880
v -1.304910 -24.000013 0.980786
v -1.304910 -22.000013 0.980786
v -1.500000 -24.000013 1.000000
v -1.500000 -22.000013 1.000000
v -1.695091 -24.000013 0.980786
v -1.695091 -22.000013 0.980786
v -1.882684 -24.000013 0.923880
v -1.882684 -22.000013 0.923880
v -2.055571 -24.000013 0.831470
v -2.055571 -22.000013 0.831470
v -2.207108 -24.000013 0.707107
v -2.207108 -22.000013 0.707107
v -2.331470 -24.000013 0.555570
v -2.331470 -22.000013 0.555570
v -2.423880 -24.000013 0.382683
v -2.423880 -22.000013 0.382683
v -2.480785 -24.000013 0.195090
v -2.480785 -22.000013 0.195090
v -2.500000 -24.000013 -0.000001
v -2.500000 -22.000013 -0.000001
v -2.480785 -24.000013 -0.195091
v -2.480785 -22.000013 -0.195091
v -2.423879 -24.000013 -0.382684
v -2.423879 -22.000013 -0.382684
v -2.331469 -24.000013 -0.555571
v -2.331469 -22.000013 -0.555571
v -2.207106 -24.000013 -0.707107
v -2.207106 -22.000013 -0.707107
v -2.055569 -24.000013 -0.831470
v -2.055569 -22.000013 -0.831470
v -1.882682 -24.000013 -0.923880
v -1.882682 -22.000013 -0.923880
v -1.695089 -24.000013 -0.980785
v -1.695089 -22.000013 -0.980785
v 1.500000 -23.999996 -1.000000
v 1.500000 -21.999996 -1.000000
v 1.695090 -23.999996 -0.980785
v 1.695090 -21.999996 -0.980785
v 1.882683 -23.999996 -0.923879
v 1.882683 -21.999996 -0.923879
v 2.055570 -23.999996 -0.831469
v 2.055570 -21.999996 -0.831469
v 2.207106 -23.999996 -0.707106
v 2.207106 -21.999996 -0.707106
v 2.331469 -23.999996 -0.555570
v 2.331469 -21.999996 -0.555570
v 2.423879 -23.999996 -0.382683
v 2.423879 -21.999996 -0.382683
v 2.480785 -23.999996 -0.195090
v 2.480785 -21.999996 -0.195090
v 2.500000 -23.999996 0.000000
v 2.500000 -21.999996 0.000000
v 2.480785 -23.999996 0.195091
v 2.480785 -21.999996 0.195091
v 2.423879 -23.999996 0.382684
v 2.423879 -21.999996 0.382684
v 2.331469 -23.999996 0.555570
v 2.331469 -21.999996 0.555570
v 2.207106 -23.999996 0.707107
v 2.207106 -21.999996 0.707107
v 2.055570 -23.999996 0.831470
v 2.055570 -21.999996 0.831470
v 1.882683 -23.999996 0.923880
v 1.882683 -21.999996 0.923880
v 1.695090 -23.999996 0.980786
v 1.695090 -21.999996 0.980786
v 1.499999 -23.999996 1.000000
v 1.499999 -21.999996 1.000000
v 1.304909 -23.999996 0.980785
v 1.304909 -21.999996 0.980785
v 1.117316 -23.999996 0.923880
v 1.117316 -21.999996 0.923880
v 0.944429 -23.999996 0.831470
v 0.944429 -21.999996 0.831470
v 0.792892 -23.999996 0.707107
v 0.792892 -21.999996 0.707107
v 0.668530 -23.999996 0.555570
v 0.668530 -21.999996 0.555570
v 0.576120 -23.999996 0.382683
v 0.576120 -21.999996 0.382683
v 0.519214 -23.999996 0.195090
v 0.519214 -21.999996 0.195090
v 0.500000 -23.999996 -0.000001
v 0.500000 -21.999996 -0.000001
v 0.519215 -23.999996 -0.195091
v 0.519215 -21.999996 -0.195091
v 0.576121 -23.999996 -0.382684
v 0.576121 -21.999996 -0.382684
v 0.668531 -23.999996 -0.555571
v 0.668531 -21.999996 -0.555571
v 0.792894 -23.999996 -0.707107
v 0.792894 -21.999996 -0.707107
v 0.944431 -23.999996 -0.831470
v 0.944431 -21.999996 -0.831470
v 1.117318 -23.999996 -0.923880
v 1.117318 -21.999996 -0.923880
v 1.304911 -23.999996 -0.980785
v 1.304911 -21.999996 -0.980785
v 1.000000 -18.000000 -3.000000
v -1.000000 -18.000000 -3.000000
vt 0.000000 0.000000
vt 0.000000 0.000000
vt 0.000000 0.000000
vt 0.375000 0.500000
vt 0.000000 0.000000
vt 0.000000 0.000000
vt 0.375000 0.500000
vt 0.000000 0.000000
vt 0.000000 0.000000
vt 0.000000 0.000000
vt 0.125000 0.500000
vt 0.125000 0.500000
vt 0.000000 0.000000
vt 0.000000 0.000000
vt 0.000000 0.000000
vt 0.000000 0.000000
vt 0.000000 0.000000
vt 0.125000 0.750000
vt 0.000000 0.000000
vt 0.000000 0.000000
vt 0.375000 0.750000
vt 0.000000 0.000000
vt 0.000000 0.000000
vt 0.000000 0.000000
vt 0.000000 0.000000
vt 0.000000 0.000000
vt 0.000000 0.000000
vt 0.125000 0.750000
vt 0.000000 0.000000
vt 0.000000 0.000000
vt 0.000000 0.000000
vt 0.000000 0.000000
vt 0.000000 0.000000
vt 0.000000 0.000000
vt 0.000000 0.000000
vt 0.000000 0.000000
vt 0.000000 0.000000
vt 0.000000 0.000000
vt 0.000000 0.000000
vt 0.000000 0.000000
vt 0.000000 0.000000
vt 0.000000 0.000000
vt 0.000000 0.000000
vt 0.000000 0.000000
vt 0.000000 0.000000
vt 0.000000 0.000000
vt 0.000000 0.000000
vt 0.375000 0.750000
vt 0.000000 0.000000
vt 0.000000 0.000000
vt 0.000000 0.000000
vt 0.000000 0.000000
vt 0.000000 0.000000
vt 0.000000 0.000000
vt 0.000000 0.000000
vt 1.000000 0.500000
vt 1.000000 1.000000
vt 0.968750 1.000000
vt 0.968750 0.500000
vt 1.000000 0.500000
vt 1.000000 1.000000
vt 0.968750 1.000000
vt 0.968750 0.500000
vt 0.968750 0.500000
vt 0.968750 1.000000
vt 0.937500 1.000000
vt 0.937500 0.500000
vt 0.937500 1.000000
vt 0.937500 0.500000
vt 0.937500 0.500000
vt 0.937500 1.000000
vt 0.906250 1.000000
vt 0.906250 0.500000
vt 0.906250 1.000000
vt 0.906250 0.500000
vt 0.875000 1.000000
vt 0.875000 0.500000
vt 0.906250 0.500000
vt 0.906250 1.000000
vt 0.875000 1.000000
vt 0.875000 0.500000
vt 0.843750 1.000000
vt 0.843750 0.500000
vt 0.875000 0.500000
vt 0.875000 1.000000
vt 0.843750 1.000000
vt 0.843750 0.500000
vt 0.812500 1.000000
vt 0.812500 0.500000
vt 0.781250 1.000000
vt 0.781250 0.500000
vt 0.843750 0.500000
vt 0.843750 1.000000
vt 0.812500 1.000000
vt 0.812500 0.500000
vt 0.750000 1.000000
vt 0.750000 0.500000
vt 0.812500 0.500000
vt 0.812500 1.000000
vt 0.781250 1.000000
vt 0.781250 0.500000
vt 0.718750 1.000000
vt 0.718750 0.500000
vt 0.687500 1.000000
vt 0.687500 0.500000
vt 0.781250 0.500000
vt 0.781250 1.000000
vt 0.750000 1.000000
vt 0.750000 0.500000
vt 0.656250 1.000000
vt 0.656250 0.500000
vt 0.750000 0.500000
vt 0.750000 1.000000
vt 0.718750 1.000000
vt 0.718750 0.500000
vt 0.625000 1.000000
vt 0.625000 0.500000
vt 0.593750 1.000000
vt 0.593750 0.500000
vt 0.718750 0.500000
vt 0.718750 1.000000
vt 0.687500 1.000000
vt 0.687500 0.500000
vt 0.562500 1.000000
vt 0.562500 0.500000
vt 0.687500 0.500000
vt 0.687500 1.000000
vt 0.656250 1.000000
vt 0.656250 0.500000
vt 0.531250 1.000000
vt 0.531250 0.500000
vt 0.500000 1.000000
vt 0.500000 0.500000
vt 0.656250 0.500000
vt 0.656250 1.000000
vt 0.625000 1.000000
vt 0.625000 0.500000
vt 0.468750 1.000000
vt 0.468750 0.500000
vt 0.625000 0.500000
vt 0.625000 1.000000
vt 0.593750 1.000000
vt 0.593750 0.500000
vt 0.437500 1.000000
vt 0.437500 0.500000
vt 0.406250 1.000000
vt 0.406250 0.500000
vt 0.593750 0.500000
vt 0.593750 1.000000
vt 0.562500 1.000000
vt 0.562500 0.500000
vt 0.375000 1.000000
vt 0.375000 0.500000
vt 0.562500 0.500000
vt 0.562500 1.000000
vt 0.531250 1.000000
vt 0.531250 0.500000
vt 0.343750 1.000000
vt 0.343750 0.500000
vt 0.312500 1.000000
vt 0.312500 0.500000
vt 0.531250 0.500000
vt 0.531250 1.000000
vt 0.500000 1.000000
vt 0.500000 0.500000
vt 0.281250 1.000000
vt 0.281250 0.500000
vt 0.500000 0.500000
vt 0.500000 1.000000
vt 0.468750 1.000000
vt 0.468750 0.500000
vt 0.250000 1.000000
vt 0.250000 0.500000
vt 0.218750 1.000000
vt 0.218750 0.500000
vt 0.468750 0.500000
vt 0.468750 1.000000
vt 0.437500 1.000000
vt 0.437500 0.500000
vt 0.187500 1.000000
vt 0.187500 0.500000
vt 0.437500 0.500000
vt 0.437500 1.000000
vt 0.406250 1.000000
vt 0.406250 0.500000
vt 0.156250 1.000000
vt 0.156250 0.500000
vt 0.125000 1.000000
vt 0.125000 0.500000
vt 0.406250 0.500000
vt 0.406250 1.000000
vt 0.375000 1.000000
vt 0.375000 0.500000
vt 0.093750 1.000000
vt 0.093750 0.500000
vt 0.375000 0.500000
vt 0.375000 1.000000
vt 0.343750 1.000000
vt 0.343750 0.500000
vt 0.062500 1.000000
vt 0.062500 0.500000
vt 0.296822 0.485388
vt 0.250000 0.490000
vt 0.203179 0.485389
vt 0.158156 0.471731
vt 0.116663 0.449553
vt 0.080295 0.419706
vt 0.050447 0.383337
vt 0.028269 0.341844
vt 0.014612 0.296822
vt 0.010000 0.250000
vt 0.014611 0.203179
vt 0.028269 0.158156
vt 0.050447 0.116663
vt 0.080294 0.080294
vt 0.116663 0.050447
vt 0.158156 0.028269
vt 0.203178 0.014612
vt 0.250000 0.010000
vt 0.296822 0.014612
vt 0.341844 0.028269
vt 0.383337 0.050447
vt 0.419706 0.080294
vt 0.449553 0.116663
vt 0.471731 0.158156
vt 0.485388 0.203178
vt 0.490000 0.250000
vt 0.485388 0.296822
vt 0.471731 0.341844
vt 0.449553 0.383337
vt 0.419706 0.419706
vt 0.383337 0.449553
vt 0.341844 0.471731
vt 0.031250 1.000000
vt 0.031250 0.500000
vt 0.000000 1.000000
vt 0.000000 0.500000
vt 0.750000 0.490000
vt 0.796822 0.485388
vt 0.841844 0.471731
vt 0.883337 0.449553
vt 0.919706 0.419706
vt 0.949553 0.383337
vt 0.971731 0.341844
vt 0.985388 0.296822
vt 0.990000 0.250000
vt 0.985388 0.203178
vt 0.971731 0.158156
vt 0.949553 0.116663
vt 0.919706 0.080294
vt 0.883337 0.050447
vt 0.841844 0.028269
vt 0.796822 0.014612
vt 0.750000 0.010000
vt 0.703178 0.014612
vt 0.658156 0.028269
vt 0.616663 0.050447
vt 0.580294 0.080294
vt 0.550447 0.116663
vt 0.528269 0.158156
vt 0.514611 0.203179
vt 0.510000 0.250000
vt 0.514612 0.296822
vt 0.528269 0.341844
vt 0.550447 0.383337
vt 0.580295 0.419706
vt 0.616663 0.449553
vt 0.658156 0.471731
vt 0.703179 0.485389
vt 0.343750 0.500000
vt 0.343750 1.000000
vt 0.312500 1.000000
vt 0.312500 0.500000
vt 0.281250 1.000000
vt 0.281250 0.500000
vt 0.250000 1.000000
vt 0.250000 0.500000
vt 0.218750 1.000000
vt 0.218750 0.500000
vt 0.187500 1.000000
vt 0.187500 0.500000
vt 0.156250 1.000000
vt 0.156250 0.500000
vt 0.125000 1.000000
vt 0.125000 0.500000
vt 0.093750 1.000000
vt 0.093750 0.500000
vt 0.062500 1.000000
vt 0.062500 0.500000
vt 0.000000 0.000000
vt 0.000000 0.000000
vt 0.971731 0.158156
vt 0.949553 0.116663
vt 0.919706 0.080294
vt 0.883337 0.050447
vt 0.841844 0.028269
vt 0.796822 0.014612
vt 0.750000 0.010000
vt 0.703178 0.014612
vt 0.658156 0.028269
vt 0.616663 0.050447
vt 0.580294 0.080294
vt 0.550447 0.116663
vt 0.528269 0.158156
vt 0.514611 0.203179
vt 0.510000 0.250000
vt 0.514612 0.296822
vt 0.528269 0.341844
vt 0.550447 0.383337
vt 0.580295 0.419706
vt 0.616663 0.449553
vt 0.658156 0.471731
vt 0.703179 0.485389
vt 0.750000 0.490000
vt 0.796822 0.485388
vt 0.841844 0.471731
vt 0.883337 0.449553
vt 0.919706 0.419706
vt 0.949553 0.383337
vt 0.971731 0.341844
vt 0.985388 0.296822
vt 0.990000 0.250000
vt 0.985388 0.203178
vt 0.031250 1.000000
vt 0.031250 0.500000
vt 0.000000 1.000000
vt 0.000000 0.500000
vt 0.050447 0.116663
vt 0.080294 0.080294
vt 0.116663 0.050447
vt 0.158156 0.028269
vt 0.203178 0.014612
vt 0.250000 0.010000
vt 0.296822 0.014612
vt 0.341844 0.028269
vt 0.383337 0.050447
vt 0.419706 0.080294
vt 0.449553 0.116663
vt 0.471731 0.158156
vt 0.485388 0.203178
vt 0.490000 0.250000
vt 0.485388 0.296822
vt 0.471731 0.341844
vt 0.449553 0.383337
vt 0.419706 0.419706
vt 0.383337 0.449553
vt 0.341844 0.471731
vt 0.296822 0.485388
vt 0.250000 0.490000
vt 0.203179 0.485389
vt 0.158156 0.471731
vt 0.116663 0.449553
vt 0.080295 0.419706
vt 0.050447 0.383337
vt 0.028269 0.341844
vt 0.014612 0.296822
vt 0.010000 0.250000
vt 0.014611 0.203179
vt 0.028269 0.158156
vt 0.000000 0.000000
vt 0.000000 0.000000
vn 0.0000 0.0000 1.0000
vn 0.0000 0.0000 -1.0000
vn 0.1961 0.0000 0.9806
vn 0.2058 0.0000 -0.9786
vn 0.2058 0.0000 0.9786
vn 0.8478 0.5304 0.0000
vn 0.9277 0.3733 -0.0000
vn 0.9470 -0.3213 0.0000
vn 0.7971 -0.6039 0.0000
vn 0.1961 0.0000 -0.9806
vn 1.0000 0.0000 0.0000
vn -0.7913 0.6114 0.0000
vn 0.0000 -1.0000 0.0000
vn 0.7945 0.6073 0.0000
vn 0.0000 1.0000 0.0000
vn 0.6746 -0.7381 0.0000
vn 0.7094 0.7048 0.0000
vn 0.0980 0.0000 -0.9952
vn -0.7730 0.0000 0.6344
vn 0.9569 0.0000 0.2903
vn 0.2903 0.0000 -0.9569
vn -0.6344 0.0000 0.7730
vn 0.4714 0.0000 -0.8819
vn 0.6344 0.0000 -0.7730
vn 0.9952 0.0000 0.0980
vn 0.7730 0.0000 -0.6344
vn -0.4714 0.0000 0.8819
vn 0.8819 0.0000 -0.4714
vn 0.9569 0.0000 -0.2903
vn 0.9952 0.0000 -0.0980
vn -0.2903 0.0000 0.9569
vn 0.8819 0.0000 0.4714
vn -0.0980 0.0000 0.9952
vn 0.7730 0.0000 0.6344
vn 0.6344 0.0000 0.7730
vn 0.4714 0.0000 0.8819
vn 0.0980 0.0000 0.9952
vn 0.2903 0.0000 0.9569
vn -0.8819 0.0000 0.4714
vn -0.9569 0.0000 0.2903
vn -0.9952 0.0000 0.0980
vn -0.9952 0.0000 -0.0980
vn -0.9569 0.0000 -0.2903
vn -0.8819 0.0000 -0.4714
vn -0.7730 0.0000 -0.6344
vn -0.6344 0.0000 -0.7730
vn -0.4714 0.0000 -0.8819
vn -0.2903 0.0000 -0.9569
vn -0.0980 0.0000 -0.9952
vn 0.0000 0.4969 -0.8678
vn 0.0000 -0.7820 -0.6232
vn -0.8480 0.0000 -0.5300
vn 0.8703 0.0000 -0.4925
usemtl None
s off
f 47/1/1 5/2/1 16/3/1
f 4/4/1 6/5/1 48/6/1 46/7/1
f 11/8/2 5/2/2 16/3/2 18/9/2
f 8/10/3 2/11/3 26/12/3 28/13/3
f 24/14/1 22/15/1 36/16/1 38/17/1
f 1/18/1 7/19/1 9/20/1 3/21/1
f 17/22/4 15/23/4 19/24/4 21/25/4
f 16/3/5 18/9/5 22/15/5 20/26/5
f 15/23/6 16/3/6 20/26/6 19/24/6
f 20/26/7 24/14/7 23/27/7 19/24/7
f 21/25/2 19/24/2 23/27/2
f 22/15/1 24/14/1 20/26/1
f 26/12/8 25/28/8 29/29/8 30/30/8
f 28/13/1 30/30/1 42/31/1 40/32/1
f 2/11/9 1/18/9 25/28/9 26/12/9
f 1/18/10 7/19/10 27/33/10 25/28/10
f 27/33/2 29/29/2 25/28/2
f 21/25/2 23/27/2 37/34/2 35/35/2
f 28/13/1 26/12/1 30/30/1
f 33/36/4 35/35/4 51/37/4 44/38/4
f 32/39/2 33/36/2 44/38/2 49/40/2
f 8/10/2 2/11/2 4/41/2 6/5/2 15/23/2 17/22/2 12/42/2 10/43/2
f 29/29/2 27/33/2 39/44/2 41/45/2
f 8/10/3 28/13/3 40/32/3 32/39/3
f 17/22/1 8/10/1 32/39/1 33/36/1
f 17/22/4 21/25/4 35/35/4 33/36/4
f 27/33/10 7/19/10 31/46/10 39/44/10
f 18/9/1 7/19/1 31/46/1 34/47/1
f 22/15/5 18/9/5 34/47/5 36/16/5
f 30/30/11 29/29/11 41/45/11 42/31/11
f 23/27/11 24/14/11 38/17/11 37/34/11
f 2/11/12 1/18/12 45/48/12 46/7/12
f 45/48/13 46/7/13 48/6/13 47/1/13
f 3/21/1 45/48/1 1/18/1
f 5/2/2 3/21/2 45/48/2 47/1/2
f 16/3/14 15/23/14 48/6/14 47/1/14
f 15/23/2 6/5/2 48/6/2
f 3/21/2 5/2/2 11/8/2 9/20/2
f 46/49/2 4/41/2 2/50/2
f 32/39/3 40/32/3 54/51/3 49/40/3
f 43/52/13 44/38/13 51/37/13 52/53/13
f 50/54/15 49/40/15 54/51/15 53/55/15
f 43/52/13 50/54/13 49/40/13 44/38/13
f 39/44/10 31/46/10 50/54/10 53/55/10
f 34/47/1 31/46/1 50/54/1 43/52/1
f 36/16/5 34/47/5 43/52/5 52/53/5
f 37/34/16 38/17/16 52/53/16 51/37/16
f 42/31/17 41/45/17 53/55/17 54/51/17
f 52/53/2 36/16/2 38/17/2
f 53/55/2 41/45/2 39/44/2
f 51/37/1 37/34/1 35/35/1
f 54/51/2 42/31/2 40/32/2
f 57/56/18 58/57/18 60/58/18 59/59/18
f 161/60/19 162/61/19 164/62/19 163/63/19
f 139/64/20 140/65/20 142/66/20 141/67/20
f 59/59/21 60/58/21 62/68/21 61/69/21
f 159/70/22 160/71/22 162/72/22 161/73/22
f 61/69/23 62/68/23 64/74/23 63/75/23
f 63/75/24 64/74/24 66/76/24 65/77/24
f 137/78/25 138/79/25 140/80/25 139/81/25
f 65/77/26 66/76/26 68/82/26 67/83/26
f 157/84/27 158/85/27 160/86/27 159/87/27
f 67/83/28 68/82/28 70/88/28 69/89/28
f 69/89/29 70/88/29 72/90/29 71/91/29
f 135/92/30 136/93/30 138/94/30 137/95/30
f 71/91/30 72/90/30 74/96/30 73/97/30
f 155/98/31 156/99/31 158/100/31 157/101/31
f 73/97/25 74/96/25 76/102/25 75/103/25
f 75/103/20 76/102/20 78/104/20 77/105/20
f 133/106/29 134/107/29 136/108/29 135/109/29
f 77/105/32 78/104/32 80/110/32 79/111/32
f 153/112/33 154/113/33 156/114/33 155/115/33
f 79/111/34 80/110/34 82/116/34 81/117/34
f 81/117/35 82/116/35 84/118/35 83/119/35
f 131/120/28 132/121/28 134/122/28 133/123/28
f 83/119/36 84/118/36 86/124/36 85/125/36
f 151/126/37 152/127/37 154/128/37 153/129/37
f 85/125/38 86/124/38 88/130/38 87/131/38
f 87/131/37 88/130/37 90/132/37 89/133/37
f 129/134/26 130/135/26 132/136/26 131/137/26
f 89/133/33 90/132/33 92/138/33 91/139/33
f 149/140/38 150/141/38 152/142/38 151/143/38
f 91/139/31 92/138/31 94/144/31 93/145/31
f 93/145/27 94/144/27 96/146/27 95/147/27
f 127/148/24 128/149/24 130/150/24 129/151/24
f 95/147/22 96/146/22 98/152/22 97/153/22
f 147/154/36 148/155/36 150/156/36 149/157/36
f 97/153/19 98/152/19 100/158/19 99/159/19
f 99/159/39 100/158/39 102/160/39 101/161/39
f 125/162/23 126/163/23 128/164/23 127/165/23
f 101/161/40 102/160/40 104/166/40 103/167/40
f 145/168/35 146/169/35 148/170/35 147/171/35
f 103/167/41 104/166/41 106/172/41 105/173/41
f 105/173/42 106/172/42 108/174/42 107/175/42
f 123/176/21 124/177/21 126/178/21 125/179/21
f 107/175/43 108/174/43 110/180/43 109/181/43
f 143/182/34 144/183/34 146/184/34 145/185/34
f 109/181/44 110/180/44 112/186/44 111/187/44
f 111/187/45 112/186/45 114/188/45 113/189/45
f 121/190/18 122/191/18 124/192/18 123/193/18
f 113/189/46 114/188/46 116/194/46 115/195/46
f 141/196/32 142/197/32 144/198/32 143/199/32
f 115/195/47 116/194/47 118/200/47 117/201/47
f 60/202/15 58/203/15 120/204/15 118/205/15 116/206/15 114/207/15 112/208/15 110/209/15 108/210/15 106/211/15 104/212/15 102/213/15 100/214/15 98/215/15 96/216/15 94/217/15 92/218/15 90/219/15 88/220/15 86/221/15 84/222/15 82/223/15 80/224/15 78/225/15 76/226/15 74/227/15 72/228/15 70/229/15 68/230/15 66/231/15 64/232/15 62/233/15
f 117/201/48 118/200/48 120/234/48 119/235/48
f 119/235/49 120/234/49 58/236/49 57/237/49
f 57/238/13 59/239/13 61/240/13 63/241/13 65/242/13 67/243/13 69/244/13 71/245/13 73/246/13 75/247/13 77/248/13 79/249/13 81/250/13 83/251/13 85/252/13 87/253/13 89/254/13 91/255/13 93/256/13 95/257/13 97/258/13 99/259/13 101/260/13 103/261/13 105/262/13 107/263/13 109/264/13 111/265/13 113/266/13 115/267/13 117/268/13 119/269/13
f 163/270/39 164/271/39 166/272/39 165/273/39
f 165/273/40 166/272/40 168/274/40 167/275/40
f 167/275/41 168/274/41 170/276/41 169/277/41
f 169/277/42 170/276/42 172/278/42 171/279/42
f 171/279/43 172/278/43 174/280/43 173/281/43
f 173/281/44 174/280/44 176/282/44 175/283/44
f 175/283/45 176/282/45 178/284/45 177/285/45
f 177/285/46 178/284/46 180/286/46 179/287/46
f 179/287/47 180/286/47 182/288/47 181/289/47
f 8/10/50 17/22/50 55/290/50 56/291/50
f 141/292/13 143/293/13 145/294/13 147/295/13 149/296/13 151/297/13 153/298/13 155/299/13 157/300/13 159/301/13 161/302/13 163/303/13 165/304/13 167/305/13 169/306/13 171/307/13 173/308/13 175/309/13 177/310/13 179/311/13 181/312/13 183/313/13 121/314/13 123/315/13 125/316/13 127/317/13 129/318/13 131/319/13 133/320/13 135/321/13 137/322/13 139/323/13
f 181/289/48 182/288/48 184/324/48 183/325/48
f 183/325/49 184/324/49 122/326/49 121/327/49
f 164/328/15 162/329/15 160/330/15 158/331/15 156/332/15 154/333/15 152/334/15 150/335/15 148/336/15 146/337/15 144/338/15 142/339/15 140/340/15 138/341/15 136/342/15 134/343/15 132/344/15 130/345/15 128/346/15 126/347/15 124/348/15 122/349/15 184/350/15 182/351/15 180/352/15 178/353/15 176/354/15 174/355/15 172/356/15 170/357/15 168/358/15 166/359/15
f 56/291/2 55/290/2 185/360/2 186/361/2
f 32/39/51 186/361/51 185/360/51 33/36/51
f 186/361/52 32/39/52 8/10/52 56/291/52
f 55/290/53 17/22/53 33/36/53 185/360/53
l 14 11
l 13 12
l 13 14
l 13 17
l 18 14
l 4 10
l 6 12
